<svg width="48" height="48" viewBox="0 0 48 48" fill="none" xmlns="http://www.w3.org/2000/svg">
<circle cx="24" cy="24" r="24" fill="#EDECEF"/>
<path d="M24.0491 0C10.7213 0 0 10.7715 0 24.0891C0 34.7627 6.88522 43.7716 16.4262 46.9541C17.6065 47.1989 18.0491 46.4155 18.0491 45.779C18.0491 45.2404 17.9999 43.282 17.9999 41.3235C11.3114 42.7434 9.93439 38.4348 9.93439 38.4348C8.85243 35.644 7.27866 34.9095 7.27866 34.9095C5.11474 33.4407 7.4262 33.4407 7.4262 33.4407C9.83603 33.5876 11.1147 35.9377 11.1147 35.9377C13.2786 39.6098 16.7213 38.5816 18.0983 37.9452C18.295 36.3784 18.9344 35.3012 19.6229 34.7137C14.3114 34.1751 8.70489 32.0698 8.70489 22.8161C8.70489 20.1721 9.63931 18.0178 11.1639 16.3531C10.918 15.7656 10.0819 13.2686 11.4098 9.98814C11.4098 9.98814 13.4262 9.35164 17.9999 12.4852C19.918 11.9466 21.9835 11.7018 23.9999 11.7018C26.0163 11.7018 28.0819 11.9956 29.9999 12.4852C34.5736 9.35164 36.59 9.98814 36.59 9.98814C37.9179 13.3175 37.0818 15.7656 36.8359 16.3531C38.4097 18.0178 39.2949 20.1721 39.2949 22.8161C39.2949 32.0698 33.6884 34.1262 28.3278 34.7137C29.213 35.4481 29.9507 36.917 29.9507 39.1692C29.9507 42.4006 29.9015 44.9956 29.9015 45.779C29.9015 46.4155 30.3442 47.1989 31.5245 46.9541C41.1146 43.7716 47.9998 34.7627 47.9998 24.0891C48.049 10.7715 37.2786 0 24.0491 0Z" fill="url(#paint0_linear_445_69)"/>
<defs>
<linearGradient id="paint0_linear_445_69" x1="8.53594e-07" y1="23.5015" x2="48.1966" y2="23.5015" gradientUnits="userSpaceOnUse">
<stop stop-color="#E7695F"/>
<stop offset="1" stop-color="#FC8C30"/>
</linearGradient>
</defs>
</svg>
