<svg width="48" height="48" viewBox="0 0 48 48" fill="none" xmlns="http://www.w3.org/2000/svg">
<rect width="48" height="48" rx="24" fill="url(#paint0_linear_445_72)"/>
<path d="M29.3337 18.666C31.4554 18.666 33.4902 19.5089 34.9905 21.0092C36.4908 22.5095 37.3337 24.5443 37.3337 26.666V35.9993H32.0003V26.666C32.0003 25.9588 31.7194 25.2805 31.2193 24.7804C30.7192 24.2803 30.0409 23.9993 29.3337 23.9993C28.6264 23.9993 27.9481 24.2803 27.448 24.7804C26.9479 25.2805 26.667 25.9588 26.667 26.666V35.9993H21.3337V26.666C21.3337 24.5443 22.1765 22.5095 23.6768 21.0092C25.1771 19.5089 27.2119 18.666 29.3337 18.666Z" stroke="#EDECEF" stroke-width="2" stroke-linecap="round" stroke-linejoin="round"/>
<path d="M16.0003 19.9993H10.667V35.9993H16.0003V19.9993Z" stroke="#EDECEF" stroke-width="2" stroke-linecap="round" stroke-linejoin="round"/>
<path d="M13.3337 15.9993C14.8064 15.9993 16.0003 14.8054 16.0003 13.3327C16.0003 11.8599 14.8064 10.666 13.3337 10.666C11.8609 10.666 10.667 11.8599 10.667 13.3327C10.667 14.8054 11.8609 15.9993 13.3337 15.9993Z" stroke="#EDECEF" stroke-width="2" stroke-linecap="round" stroke-linejoin="round"/>
<defs>
<linearGradient id="paint0_linear_445_72" x1="48" y1="24" x2="0" y2="24" gradientUnits="userSpaceOnUse">
<stop stop-color="#E7695F"/>
<stop offset="1" stop-color="#FB8B30"/>
</linearGradient>
</defs>
</svg>
